<?xml version="1.0" encoding="UTF-8"?>
<svg version="1.1" xmlns="http://www.w3.org/2000/svg" width="433" height="373">
<path d="M0 0 C4.16696057 1.04174014 5.5109097 0.25583895 9.5 -1.125 C17.26474906 -1.92709746 23.84056926 -1.39119782 30.5 2.875 C31.62415334 3.89506507 32.72875832 4.93709951 33.8125 6 C37.63822793 9.56771372 41.52504633 9.69396657 46.56640625 10.3359375 C53.43797524 11.59862261 58.03314493 15.90748453 62.34765625 21.171875 C63.5 22.875 63.5 22.875 64.3125 25.625 C65.82023196 28.48175529 66.80559688 28.56844157 69.8125 29.5625 C70.62074219 29.78550781 71.42898437 30.00851563 72.26171875 30.23828125 C74.5 30.875 74.5 30.875 77.125 32.25 C80.20111905 33.05950501 81.67367523 32.04643478 84.421875 30.6484375 C86.98328325 29.69513142 89.1480839 29.72558542 91.875 29.6875 C97.79773654 29.3223998 100.34792369 26.87519184 104.4609375 22.8203125 C109.58885131 17.92816484 114.97060433 17.47145099 121.72265625 17.62890625 C124.3647655 17.8630172 126.74848294 18.33845766 129.3125 19 C133.40706228 20.03988883 135.49696848 19.31609135 139.5 17.875 C147.57131459 16.83725955 153.75646193 18.30718455 160.5 22.875 C161.12519531 23.57109375 161.75039062 24.2671875 162.39453125 24.984375 C165.15683527 27.46481126 167.08852936 27.52794117 170.75 27.875 C179.75881325 29.06408273 185.24050155 31.59923948 191.109375 38.64453125 C193.00477549 41.68462585 193.43271326 44.55782219 193.99609375 48.05078125 C194.16238281 48.65277344 194.32867187 49.25476562 194.5 49.875 C196.74743756 51.02520525 196.74743756 51.02520525 199.5 51.875 C206.76043267 57.94706588 209.93294288 66.29893828 210.875 75.5625 C211.66879037 79.76958896 213.63812251 82.29690142 216.06640625 85.76171875 C220.10835689 91.72001657 219.90677245 97.91814814 219.5 104.875 C219.2525 105.926875 219.005 106.97875 218.75 108.0625 C218.41927844 111.78311751 219.69033079 113.84876822 221.4921875 117.04296875 C222.5 118.875 222.5 118.875 223.5 121.875 C230.51431919 122.32431582 234.78851868 122.39105499 240.5 117.875 C246.72575108 115.10799952 253.20628468 114.84859515 259.625 117.125 C262.31443449 118.21856383 264.10097759 119.31321283 266.5 121.0625 C270.29623437 123.41213236 274.13678773 122.97657455 278.4375 122.8125 C284.14877538 122.62045324 288.32044364 122.77217696 292.95703125 126.375 C296.27840429 129.6038791 298.92379045 133.01068567 301.5 136.875 C303.64869823 137.63643656 303.64869823 137.63643656 306.125 138.125 C312.7532827 139.99279643 317.4076684 143.24592767 320.8828125 149.2734375 C323.23714656 154.62419673 323.93009191 159.06875917 323.5 164.875 C324.056875 165.08125 324.61375 165.2875 325.1875 165.5 C330.43964475 168.62289688 333.26023382 173.34458912 335.0234375 179.05078125 C335.7536442 183.37815375 335.50469487 187.68282552 335.37451172 192.05102539 C335.28793512 197.84409914 336.39313264 201.07347772 339.5 205.875 C341.64853124 212.32059371 341.06230041 218.75828606 338.25390625 224.890625 C336.39428719 229.78537361 336.49329232 234.46750936 336.75 239.625 C336.81502725 246.45286098 335.40377377 251.27775817 331.5 256.875 C330.94957031 257.37257813 330.39914062 257.87015625 329.83203125 258.3828125 C328.31062682 259.79045365 328.31062682 259.79045365 328.3125 261.85546875 C328.4053125 262.94794922 328.4053125 262.94794922 328.5 264.0625 C328.68549854 270.79500574 326.98901381 275.60591439 322.375 280.5625 C319.71375153 283.08843076 317.20206456 284.55423073 313.875 286.0625 C308.58040135 288.74115482 307.60176557 292.71114103 305.6484375 298.06640625 C304.09451995 301.86663318 302.09263559 304.03892467 298.5 305.875 C296.46263408 306.65712973 294.42052106 307.42695389 292.375 308.1875 C288.18938199 309.74096299 288.18938199 309.74096299 285.08203125 312.7578125 C284.49028349 314.11702351 283.93211161 315.49139677 283.41015625 316.87890625 C281.31977091 321.46339942 277.0308947 324.19098322 272.5625 326.1875 C269.5 326.875 269.5 326.875 265.5625 327 C262.83262386 327.27866411 261.77899026 327.60427141 259.78515625 329.5390625 C258.65558196 330.95833937 257.52940377 332.38032431 256.40625 333.8046875 C252.03583733 338.55124224 246.07607817 340.73782631 239.8125 341.6875 C234.9419502 342.55907207 233.19486069 345.22501036 230.2265625 348.97265625 C226.02315995 353.60400703 220.22746035 353.9381427 214.3125 354.75 C209.04622228 355.54093032 207.0146448 356.77458107 203.5 360.875 C197.21003101 365.35055486 192.13408629 364.99369657 184.72412109 364.73217773 C179.46227949 364.63538025 176.34439933 365.31718855 172.11328125 368.62890625 C167.2566981 372.38011696 160.38737221 372.52490472 154.5 371.875 C153.42621094 371.54757812 152.35242188 371.22015625 151.24609375 370.8828125 C147.07248264 369.7599849 143.35146236 369.59544884 139.0625 369.5 C130.18927188 369.10514801 124.90340884 367.67571436 118.6875 361.0625 C116.40815386 358.33234985 115.44512294 356.70748054 114.3125 353.25 C111.75332171 348.48463354 108.19723169 347.52646029 103.390625 345.34375 C98.6588532 342.93949838 96.59933411 340.02131898 94.1875 335.3125 C93.45620172 332.71971518 93.34681949 330.55565884 93.5 327.875 C91.7675 327.565625 91.7675 327.565625 90 327.25 C84.25925424 325.78427768 79.54441573 322.83262736 76.14453125 317.9140625 C74.45267533 314.72579971 73.53053926 312.3839876 73.3125 308.75 C72.12914799 304.56275443 69.37919164 303.63293866 65.7890625 301.421875 C58.85218906 296.73415848 57.24121959 289.70341003 55.5 281.875 C52.14897101 281.07713596 50.05118285 280.68709676 46.75 281.8125 C40.3167827 283.91566719 34.52154688 283.67817518 28.3125 280.9375 C24.55318071 278.8975593 22.52155498 276.82899471 20.125 273.3125 C16.65367938 268.32761778 13.07378917 267.40494373 7.375 265.81640625 C1.37969555 263.85326987 -2.06133091 260.11858248 -4.9375 254.625 C-5.92393889 252.49528256 -6.5 251.22566599 -6.5 248.875 C-7.655 248.66875 -8.81 248.4625 -10 248.25 C-16.38886687 246.6414555 -20.83806125 242.92046308 -24.9375 237.875 C-26.54408185 234.79036284 -27.17181091 232.3209854 -27.5 228.875 C-28.056875 228.80023438 -28.61375 228.72546875 -29.1875 228.6484375 C-35.47475635 227.56516022 -40.01479504 225.48197523 -44.5 220.875 C-47.02661642 217.20921548 -48.36496652 213.91668683 -48.9375 209.5 C-49.2159375 208.200625 -49.2159375 208.200625 -49.5 206.875 C-51.74743756 205.72479475 -51.74743756 205.72479475 -54.5 204.875 C-60.77474054 200.69183964 -64.40856573 194.85868147 -66.03125 187.44921875 C-66.26778441 185.5996511 -66.39656888 183.7367602 -66.5 181.875 C-67.03625 181.813125 -67.5725 181.75125 -68.125 181.6875 C-72.92800098 180.04436809 -76.26126418 176.76492871 -78.75 172.4375 C-80.53144299 168.63660747 -80.89026268 165.03070414 -81.3125 160.875 C-82.02983786 154.71510792 -83.51388192 151.81976892 -87.87890625 147.52734375 C-91.24271196 144.09869359 -91.5973454 140.21267233 -91.75 135.625 C-91.69763269 132.16875778 -91.13274054 129.10228742 -90.3125 125.75 C-89.39879837 121.63519195 -89.7351726 119.7098534 -91.75 115.9140625 C-93.95900335 109.90833464 -93.278561 102.19426787 -91.125 96.25 C-89.5 92.875 -89.5 92.875 -87.5 89.875 C-87.59356188 86.7377689 -87.59356188 86.7377689 -88.0625 83.25 C-88.77030019 74.8686099 -87.77179843 69.37577895 -82.4375 62.8125 C-80.90234375 61.08984375 -80.90234375 61.08984375 -79.5 59.875 C-78.84 59.875 -78.18 59.875 -77.5 59.875 C-77.49742188 59.05257812 -77.49484375 58.23015625 -77.4921875 57.3828125 C-77.2088861 49.20484549 -75.95274638 43.15852963 -70.5 36.875 C-67.07044252 34.07311625 -63.6898482 32.27161607 -59.5 30.875 C-58.46799911 28.78140639 -58.46799911 28.78140639 -57.6875 26.25 C-55.068952 19.35908421 -51.87022394 14.75071033 -45.125 11.5 C-42.09178681 10.27750767 -39.44091799 9.67378175 -36.1875 9.4375 C-31.53308742 8.72750486 -31.29602516 7.49338551 -28.5 3.875 C-20.07710442 -2.29176284 -9.88158947 -2.85846745 0 0 Z M-22.6875 15 C-26.9465448 21.75572623 -27.87535765 27.99248926 -27.5 35.875 C-24.51958669 35.3205045 -22.24211755 34.72631803 -20.19921875 32.3828125 C-16.46184171 26.51500881 -13.54260905 20.12082504 -10.5 13.875 C-9.83510109 12.54078425 -9.16920272 11.20706229 -8.5 9.875 C-14.49556609 9.44674528 -18.35393926 10.79025528 -22.6875 15 Z M3.2890625 14.90625 C-0.21520528 18.70148586 -2.78067068 21.96014952 -4.5 26.875 C-2.24335355 27.64055855 -0.91923952 28.00033965 1.39453125 27.30859375 C5.66070998 25.09296121 9.07499431 22.63186282 12.625 19.40234375 C15.93519548 16.70591368 19.71279819 14.81583358 23.5 12.875 C21.05113537 10.42613537 19.09882696 10.17516277 15.7109375 9.86328125 C10.59260734 9.89041021 7.05098544 11.45006638 3.2890625 14.90625 Z M20.5 27.875 C20.83 28.865 21.16 29.855 21.5 30.875 C28.02818151 33.9715854 33.66597055 32.16451003 40.4375 30.5 C41.50291016 30.2525 42.56832031 30.005 43.66601562 29.75 C46.28132919 29.1401511 48.89189452 28.51485012 51.5 27.875 C50.09002748 24.52977109 49.64067341 23.95074722 46.25 22.125 C36.93411919 19.0197064 28.50960863 22.82011137 20.5 27.875 Z M-44.03515625 25.265625 C-48.15009061 29.78656622 -48.99062545 35.62533293 -48.8046875 41.5546875 C-48.28380708 45.52139225 -46.97143703 49.17013176 -45.5 52.875 C-41.58396696 50.08079508 -41.58396696 50.08079508 -39.5 45.875 C-39.2846436 44.03128728 -39.11170319 42.18246019 -38.96484375 40.33203125 C-38.83432617 38.72231445 -38.83432617 38.72231445 -38.70117188 37.08007812 C-38.5706543 35.40075195 -38.5706543 35.40075195 -38.4375 33.6875 C-38.34662109 32.55634766 -38.25574219 31.42519531 -38.16210938 30.25976562 C-37.93806386 27.46509264 -37.71749856 24.67018889 -37.5 21.875 C-40.40464123 21.875 -41.9174027 23.42229917 -44.03515625 25.265625 Z M106.13354492 35.98486328 C103.17501134 39.40811347 102.47432178 43.40985904 101.5625 47.75 C101.35560547 48.62914063 101.14871094 49.50828125 100.93554688 50.4140625 C100.43323906 52.56347268 99.95566447 54.71531032 99.5 56.875 C105.56401249 55.09196165 108.07310059 53.08320851 111.5 47.875 C113.39825548 44.34619173 115.16477289 40.79775305 116.88671875 37.1796875 C118.2921809 34.30070207 119.80435968 31.59007362 121.5 28.875 C115.18081183 28.875 110.77872212 31.94445984 106.13354492 35.98486328 Z M130.30078125 37.03125 C126.06226685 41.31754544 126.06226685 41.31754544 124.5 46.875 C127.55999215 47.86499746 129.1759378 47.98547575 132.25 46.9375 C135.97339862 44.57457396 139.00489027 41.79581709 142.2421875 38.81640625 C145.14950657 36.31651424 148.09381113 34.61433049 151.5 32.875 C151.5 32.215 151.5 31.555 151.5 30.875 C142.66897143 27.05617683 136.88716795 30.99479462 130.30078125 37.03125 Z M5.72265625 36.82421875 C2.17285072 37.98167049 -0.35755245 37.91933261 -4.0625 37.6875 C-9.1887913 37.49445723 -9.1887913 37.49445723 -13.4375 40.1875 C-14.118125 41.074375 -14.79875 41.96125 -15.5 42.875 C-18.97958368 44.99300746 -21.02501527 45.85862122 -25.125 46 C-28.54874254 46.47715031 -28.54874254 46.47715031 -29.69140625 48.7578125 C-30.36324202 50.35441044 -31.00337633 51.96467125 -31.61328125 53.5859375 C-32.77454519 56.58373781 -34.23033619 58.60533619 -36.5 60.875 C-37.551875 61.225625 -38.60375 61.57625 -39.6875 61.9375 C-40.615625 62.576875 -41.54375 63.21625 -42.5 63.875 C-42.9990172 66.86003019 -43.06925512 69.76940698 -43.16796875 72.79296875 C-43.76822222 78.36473335 -46.94932346 81.96249893 -50.375 86.1875 C-50.74625 86.744375 -51.1175 87.30125 -51.5 87.875 C-51.17 88.865 -50.84 89.855 -50.5 90.875 C-49.89013199 96.72973289 -51.44220571 100.99520585 -53.625 106.421875 C-54.7009354 109.43833674 -54.85377634 111.11982357 -53.484375 114.04296875 C-52.17512416 117.80966263 -52.53877076 121.27505552 -52.75 125.1875 C-52.9959641 132.34140546 -52.9959641 132.34140546 -49.625 138.5 C-49.07714844 139.08007812 -48.52929688 139.66015625 -47.96484375 140.2578125 C-45.24972011 143.255309 -44.60950466 146.99929111 -44.37890625 150.94921875 C-44.27868246 153.36266131 -44.27868246 153.36266131 -43.5 156.875 C-40.72132295 159.14416093 -40.72132295 159.14416093 -37.5 160.875 C-33.34597559 165.25980355 -31.5 169.3631518 -31.5 175.4375 C-30.88679623 178.95466848 -30.88679623 178.95466848 -28.390625 180.21875 C-26.6047908 181.04298117 -24.81149011 181.85119409 -23.01171875 182.64453125 C-19.19572304 184.51395372 -17.78710852 186.27107142 -15.5 189.875 C-15.08256205 191.41095758 -14.68778829 192.95320368 -14.3125 194.5 C-13.44501932 197.46926245 -13.05126672 198.55500612 -10.33984375 200.12890625 C-8.59396078 200.75826678 -6.83815745 201.36067917 -5.07421875 201.9375 C-1.08676734 203.38968261 1.9069289 205.50400757 4.5 208.875 C5.2421875 211.12109375 5.2421875 211.12109375 5.8125 213.5 C6.61577952 216.48859896 6.93800556 217.54759489 9.65234375 219.12890625 C11.40075081 219.75728112 13.15914217 220.35846891 14.92578125 220.93359375 C19.66724854 222.66757496 23.29985186 225.50042117 25.59375 230.0390625 C26.32340355 231.95102504 26.92439154 233.91115938 27.5 235.875 C28.16 235.875 28.82 235.875 29.5 235.875 C31.90903927 223.91382963 31.90903927 223.91382963 27.5 212.875 C25.37839539 206.12322685 26.41441107 200.38140837 28.76171875 193.91796875 C30.14495629 190.0902797 30.79760161 187.76780483 29.5 183.875 C28.86006372 176.20625535 28.66323405 169.19467127 33.5 162.875 C34.35207031 162.13894531 35.20414062 161.40289062 36.08203125 160.64453125 C39.08733464 157.20226938 39.28033593 154.43381492 39.5 150.0625 C40.07164449 143.73214616 40.7682625 138.45333953 45.5 133.875 C46.87151041 133.02208374 48.26903214 132.20980555 49.6875 131.4375 C52.6959162 129.78217853 52.6959162 129.78217853 54.28125 126.8515625 C54.554876 125.30978522 54.80577353 123.76382146 55.03515625 122.21484375 C56.16837293 116.51066902 59.50555891 112.23226863 64.25 109 C67.22238584 107.28947607 69.7484176 106.56841891 73.125 106.0625 C75.92257745 105.5651529 77.15192308 105.24404541 79.12109375 103.15625 C80.0860217 101.75462024 81.03264056 100.34021702 81.9609375 98.9140625 C85.0819825 94.77907395 89.66462121 92.48679293 94.5 90.875 C96.73000378 90.931671 98.95929567 91.01900974 101.1875 91.125 C106.99971583 91.184735 110.11222104 90.56037753 114.71875 87.125 C119.863514 83.5146393 125.9894786 83.49800659 132.02734375 84.25390625 C136.36044348 85.34231519 140.3307255 87.7057255 143.5 90.875 C145.85268513 91.00850672 148.20742963 91.10629068 150.5625 91.1875 C158.89106013 91.64087514 164.23788519 93.10555966 169.875 99.375 C171.39326167 101.24101993 172.48618358 102.84402447 173.46875 105.046875 C173.8090625 105.65015625 174.149375 106.2534375 174.5 106.875 C177.55908413 107.69084568 177.55908413 107.69084568 180.5 107.875 C181.90302552 101.27284104 181.90302552 101.27284104 179.75 95.25 C179.0075 94.46625 178.265 93.6825 177.5 92.875 C175.46699161 88.83538593 174.45157743 85.19705982 174.375 80.6875 C173.93768925 76.87382962 173.93768925 76.87382962 171.58203125 75.47265625 C169.97635465 74.65279202 168.35731329 73.85862626 166.7265625 73.08984375 C162.93927703 71.02344764 161.14892104 67.73936046 159.76171875 63.75390625 C158.61403557 61.59773768 158.61403557 61.59773768 155.890625 61.1875 C154.85421875 61.084375 153.8178125 60.98125 152.75 60.875 C146.11915271 60.02144636 146.11915271 60.02144636 143.1875 57.625 C142.300625 57.0475 141.41375 56.47 140.5 55.875 C137.09067962 56.58657463 137.09067962 56.58657463 133.5 57.875 C129.23587567 58.22537385 125.38794328 58.11406165 121.25 57 C120.3425 56.95875 119.435 56.9175 118.5 56.875 C116.24844797 59.34032518 116.24844797 59.34032518 114.89453125 61.2421875 C111.14496213 65.6324393 105.865046 67.02182164 100.3125 67.625 C97.82878243 67.80154858 95.43806917 67.87243931 92.94921875 67.76953125 C90.24100915 67.88615272 88.83867475 68.48756531 86.5 69.8125 C79.87126195 73.31891657 73.3396924 73.85412197 66.0625 71.8125 C60.68048391 69.89232959 55.10900628 66.09301255 52.5 60.875 C50.82763612 60.41943515 49.1355075 60.03550979 47.4375 59.6875 C41.42857116 58.13454307 37.50889936 55.61190772 33.5 50.875 C32.88108804 49.64222842 32.29499669 48.39218443 31.75 47.125 C28.63781995 42.62962882 25.61044342 42.57685005 20.41796875 41.55859375 C16.64983049 40.67583044 14.53475073 39.20942364 11.5 36.875 C8.53464725 35.54985841 8.53464725 35.54985841 5.72265625 36.82421875 Z M149.5 47.875 C150.55630262 49.52070159 150.55630262 49.52070159 152.5 50.875 C158.12244612 51.59275908 162.99086809 50.05816326 168.41015625 48.609375 C172.74506291 47.57908113 177.06105909 47.15979931 181.5 46.875 C180.5007455 44.31776805 179.83618056 43.0852751 177.4765625 41.609375 C176.70054687 41.28453125 175.92453125 40.9596875 175.125 40.625 C174.35414063 40.28984375 173.58328125 39.9546875 172.7890625 39.609375 C164.47691607 36.94267956 155.32585739 42.20659822 149.5 47.875 Z M41.5 40.875 C42.76667804 44.78059061 43.81515306 46.93560687 47.5 48.875 C56.50440213 50.8259538 62.83081223 48.66824235 70.5 43.875 C70.5 43.215 70.5 42.555 70.5 41.875 C67.23798103 39.70032068 66.30744235 39.62692794 62.53515625 39.64453125 C61.08786133 39.64743164 61.08786133 39.64743164 59.61132812 39.65039062 C58.60521484 39.66263672 57.59910156 39.67488281 56.5625 39.6875 C55.56025391 39.68814453 54.55800781 39.68878906 53.52539062 39.68945312 C47.4413256 39.7073729 47.4413256 39.7073729 41.5 40.875 Z M84.5 43.875 C83.41988822 45.28384145 82.38176884 46.72534672 81.375 48.1875 C77.25545456 53.87861018 71.85390039 56.21449983 65.5 58.875 C67.25730837 61.09073665 68.15698012 61.8152273 70.98828125 62.30859375 C76.96532238 62.31686075 80.96352306 62.19018539 85.5 57.875 C89.19275759 52.59963201 90.85655113 47.062834 92.5 40.875 C89.1491339 40.875 87.35219169 42.09910706 84.5 43.875 Z M-60.5 43.875 C-64.54378777 47.65789824 -65.66510958 50.31498556 -65.875 55.8125 C-65.83354851 63.5950178 -62.77282832 70.46575752 -58.5 76.875 C-55.50860209 76.19117939 -55.50860209 76.19117939 -54.3125 74.3125 C-52.16747396 67.87742188 -53.78202317 61.80986411 -55.875 55.625 C-56.09671875 54.93148437 -56.3184375 54.23796875 -56.546875 53.5234375 C-57.63822265 50.17235824 -58.79567803 46.96507908 -60.5 43.875 Z M171.5 58.875 C171.10679629 62.6799258 171.10679629 62.6799258 172.71484375 64.53833008 C174.82003023 66.11462876 176.50922384 66.64568452 179.0625 67.26171875 C180.38121094 67.5855957 180.38121094 67.5855957 181.7265625 67.91601562 C182.64179688 68.12935547 183.55703125 68.34269531 184.5 68.5625 C185.41523438 68.78744141 186.33046875 69.01238281 187.2734375 69.24414062 C192.33051932 70.48159033 192.33051932 70.48159033 197.5 70.875 C197.1999825 67.37479578 196.54266259 65.92595809 194.25 63.1875 C189.29351837 59.01954954 185.01160957 58.59265373 178.6875 58.75 C177.99462891 58.75902344 177.30175781 58.76804688 176.58789062 58.77734375 C174.89177605 58.80073843 173.19584129 58.83660359 171.5 58.875 Z M-74.5 71.875 C-77.07128523 75.73192785 -76.66093222 77.65523832 -76.1015625 82.1171875 C-74.37654464 90.02538628 -69.93138789 96.06467807 -64.5 101.875 C-61.8298489 99.54754209 -61.5177652 98.97803815 -60.875 95.25 C-61.04310057 90.40162565 -63.55117229 87.82340605 -66.609375 84.26171875 C-69.59946772 80.48703558 -71.52138827 76.24253465 -73.5 71.875 C-73.83 71.875 -74.16 71.875 -74.5 71.875 Z M184.5 79.875 C185.24919086 84.19725498 186.11809265 87.74644233 189.609375 90.59765625 C192.20110266 92.10681444 194.84274665 93.485111 197.5 94.875 C199.92539901 96.46872896 202.30614977 98.11499716 204.6875 99.7734375 C206.43135309 101.04812085 206.43135309 101.04812085 208.5 100.875 C207.61617287 94.15486612 205.94753619 89.17274884 200.5 84.875 C195.44189034 82.17350961 190.21701923 80.4767915 184.5 79.875 Z M113.80078125 100.640625 C108.19934569 107.68840128 108.19934569 107.68840128 105.5 115.875 C111.25416341 116.33533307 114.08981411 115.62834969 118.5 111.875 C120.01981261 109.95545586 121.43250767 107.98097981 122.84375 105.98046875 C125.61591834 102.45641512 129.03180567 99.69180758 132.5 96.875 C130.59711968 94.56023864 130.59711968 94.56023864 127.375 94.5 C121.83896183 95.03574563 117.70969376 96.57895039 113.80078125 100.640625 Z M-80.5 100.875 C-80.75284448 102.24584355 -80.97604997 103.62216429 -81.1875 105 C-81.31511719 105.76570313 -81.44273438 106.53140625 -81.57421875 107.3203125 C-81.43829285 111.99902519 -79.2910309 115.04754005 -76.125 118.359375 C-75.25875 119.10703125 -74.3925 119.8546875 -73.5 120.625 C-72.63375 121.38296875 -71.7675 122.1409375 -70.875 122.921875 C-67.16619493 126.11268649 -67.16619493 126.11268649 -62.5 126.875 C-61.97536523 123.27750441 -61.73756338 121.05941412 -63.7421875 117.9453125 C-65.58489527 115.83086902 -67.50578561 113.84745933 -69.5 111.875 C-70.29148437 111.070625 -71.08296875 110.26625 -71.8984375 109.4375 C-74.08235494 107.23237948 -76.28528922 105.04911527 -78.5 102.875 C-79.16 102.215 -79.82 101.555 -80.5 100.875 Z M90.5 104.875 C84.58123151 112.18748462 84.2064628 120.85688495 84.5 129.875 C88.00606028 128.47257589 90.09514045 127.46783006 92.25 124.3125 C93.55408459 120.72626737 94.22863142 117.29966263 94.89453125 113.5546875 C95.89593511 109.12266784 97.68066217 105.02591641 99.5 100.875 C95.98743667 100.875 93.2148888 102.80998391 90.5 104.875 Z M130.5 113.875 C132.40829625 116.20645587 132.40829625 116.20645587 135.6875 116.1875 C139.11810051 115.90630324 141.39636406 115.26958854 144.47265625 113.8046875 C146.99911582 112.64611837 149.57583464 111.7003271 152.1875 110.75 C153.09886719 110.41742188 154.01023438 110.08484375 154.94921875 109.7421875 C157.123256 109.00308142 159.26378087 108.38823062 161.5 107.875 C160.58486681 105.58716703 159.84515354 104.14050272 157.875 102.625 C146.69926789 99.09582144 137.58478783 105.73453187 130.5 113.875 Z M191.5 104.875 C191.5 112.98060392 195.2426373 117.00442862 200.5 122.875 C201.26183594 123.74511719 202.02367187 124.61523438 202.80859375 125.51171875 C204.68987179 127.64785799 206.58631642 129.76791223 208.5 131.875 C211.35833286 129.01666714 211.30075773 126.85984539 211.5 122.875 C209.45521707 116.0103716 203.13677291 111.0234566 197.1328125 107.4765625 C195.28428431 106.54900921 193.39557795 105.70216129 191.5 104.875 Z M67.5 119.875 C62.91038184 127.94639745 64.20385183 134.35584201 66.5 142.875 C67.15048417 145.21354706 67.82032178 147.54467466 68.5 149.875 C71.62293681 149.14539781 71.62293681 149.14539781 73.20703125 146.6484375 C75.17054377 140.9180656 74.55399068 135.48709552 74.1875 129.5 C74.12626953 128.28699219 74.06503906 127.07398438 74.00195312 125.82421875 C73.84922036 122.84005559 73.68144321 119.85753233 73.5 116.875 C71.06273797 116.875 69.36609692 118.49764275 67.5 119.875 Z M154.5 120.875 C154.5 121.865 154.5 122.855 154.5 123.875 C158.1642281 127.16017002 161.33621047 128.00343178 166.16796875 127.97265625 C167.06064453 127.96943359 167.95332031 127.96621094 168.87304688 127.96289062 C169.80181641 127.95451172 170.73058594 127.94613281 171.6875 127.9375 C172.62787109 127.93298828 173.56824219 127.92847656 174.53710938 127.92382812 C176.85813712 127.91204626 179.17903644 127.89559558 181.5 127.875 C182.16 126.225 182.82 124.575 183.5 122.875 C174.40602879 115.25572682 165.16249731 117.46948755 154.5 120.875 Z M115.6875 125.375 C112.23176519 126.49988728 110.51215781 126.87623639 106.8125 126.5 C103.45951408 126.51324054 103.45951408 126.51324054 101.796875 128.7265625 C100.62742341 130.34377708 99.47271117 131.97173972 98.33203125 133.609375 C94.9503856 137.79136749 90.4653533 139.21988223 85.5 140.875 C84.68799698 143.20783065 84.68799698 143.20783065 84.1875 146 C82.4886213 152.9123689 79.37670103 156.95719931 73.5 160.875 C73.10128863 163.42917068 73.10128863 163.42917068 73.125 166.375 C72.8147684 171.99288958 71.46908803 175.78857261 68.65625 180.62109375 C65.7316 186.32218514 66.49373935 192.36035076 66.66015625 198.59765625 C66.50625288 201.74704481 66.05585373 203.22017023 64.5 205.875 C64.77955519 208.57736687 65.73351504 210.29532707 67.0625 212.6875 C69.70279489 218.50640234 68.71751417 225.61542569 68.5 231.875 C70.046875 231.38386719 70.046875 231.38386719 71.625 230.8828125 C74.98679264 229.91722719 77.99272111 229.74067213 81.5 229.75 C85.01103957 229.52235155 86.87398352 229.3878253 89.6171875 227.140625 C90.77909197 225.72568355 91.9091689 224.28393186 93.00390625 222.81640625 C95.17055153 220.00485872 97.14929554 218.99190149 100.5 217.875 C102.20778501 217.79897777 103.9162562 217.73753642 105.625 217.6875 C108.21333447 217.59435202 108.21333447 217.59435202 110.5 216.875 C111.96287433 214.98526872 112.67288406 213.16247848 113.5390625 210.94140625 C115.21981197 207.32711166 117.95084472 205.53257252 121.5 203.875 C123.38895383 203.42817948 125.28559062 203.01298951 127.1875 202.625 C131.19164398 201.73934388 131.19164398 201.73934388 133.8828125 198.8671875 C134.50248809 197.28935804 135.08740534 195.69743276 135.63671875 194.09375 C137.06097058 190.43322946 139.22931718 188.93431881 142.5 186.875 C144.20186637 186.45222623 145.91099974 186.05802653 147.625 185.6875 C150.25193085 185.10091627 150.25193085 185.10091627 152.5 183.875 C153.89734992 181.46020467 154.62805768 179.11508789 155.44921875 176.453125 C157.23414725 172.07374652 160.62069463 169.44320813 164.5 166.875 C165.44875 166.606875 166.3975 166.33875 167.375 166.0625 C170.18360232 164.49298694 170.35286827 163.29747323 171.25 160.25 C171.76442056 157.02444403 171.90086289 155.52012045 170.16015625 152.71875 C168.90631689 151.38273512 167.61230477 150.08353286 166.28515625 148.8203125 C164.34093342 146.70166267 163.89582543 145.38119988 163.25 142.625 C162.71992571 140.58585089 162.71992571 140.58585089 161.5 138.875 C158.77831799 137.48372485 156.08885242 136.61412711 153.1640625 135.734375 C149.12012914 134.42988037 146.42560854 132.44912408 144.2734375 128.7890625 C142.58694729 126.5849508 142.58694729 126.5849508 139.5390625 126.3359375 C138.41242188 126.30757813 137.28578125 126.27921875 136.125 126.25 C131.69659645 126.11765691 128.56783956 125.57560182 124.5 123.875 C120.89650489 123.875 118.99815374 124.24885636 115.6875 125.375 Z M241.8984375 131.28515625 C237.8511705 135.6748843 232.5 142.7092988 232.5 148.875 C235.88673536 148.80726529 238.52931018 148.72235511 241.16015625 146.42578125 C242.68821554 144.62415635 244.11621823 142.78943554 245.5 140.875 C248.90232662 136.22515362 252.83297767 133.17136772 257.5 129.875 C257.17 129.215 256.84 128.555 256.5 127.875 C250.7746643 126.10287228 246.29081172 127.41772432 241.8984375 131.28515625 Z M-79.5 130.875 C-80.77170596 134.69011789 -80.51390392 137.46229274 -78.76171875 141.109375 C-74.2953784 147.35948596 -65.61423186 150.69193246 -58.5 152.875 C-57.51 152.875 -56.52 152.875 -55.5 152.875 C-55.69380954 147.85473308 -55.69380954 147.85473308 -58.5390625 143.96484375 C-62.17509082 141.3985177 -65.89959474 139.02194659 -69.6875 136.6875 C-70.41130859 136.23697266 -71.13511719 135.78644531 -71.88085938 135.32226562 C-75.62386879 132.98068352 -75.62386879 132.98068352 -79.5 130.875 Z M191.5 131.875 C191.05498186 139.0094178 192.15248567 143.4607418 195.4375 149.75 C196.17680256 151.2260514 196.91512535 152.70259405 197.65234375 154.1796875 C197.98226318 154.81890137 198.31218262 155.45811523 198.65209961 156.11669922 C199.5 157.875 199.5 157.875 200.5 160.875 C201.16 160.875 201.82 160.875 202.5 160.875 C205.13973875 156.27129562 205.12634261 152.06581437 204.5 146.875 C202.72405803 141.23436614 199.0027258 135.71732602 194.5 131.875 C193.51 131.875 192.52 131.875 191.5 131.875 Z M219.76171875 135.45703125 C215.72829724 141.1718791 214.98938099 144.87288373 216.0703125 151.78515625 C216.21210938 152.47480469 216.35390625 153.16445312 216.5 153.875 C219.2125495 151.1624505 220.20384992 147.95147817 221.5625 144.4375 C221.83126953 143.75623047 222.10003906 143.07496094 222.37695312 142.37304688 C223.48262482 139.55785785 224.54342717 136.74471848 225.5 133.875 C221.60130702 133.4262758 221.60130702 133.4262758 219.76171875 135.45703125 Z M256.5 144.875 C256.83 145.865 257.16 146.855 257.5 147.875 C263.00772835 149.08670024 265.70268651 148.83504449 270.5 145.875 C271.386875 145.235625 272.27375 144.59625 273.1875 143.9375 C277.69590142 141.13038214 282.48137451 139.55382846 287.5 137.875 C285.77773504 134.62650023 285.77773504 134.62650023 282.5 133.875 C271.82442056 132.34679844 263.99823666 137.86577878 256.5 144.875 Z M173.5 138.875 C174.74976756 142.52816671 175.17098753 143.65565836 178.5 145.875 C179.16 145.545 179.82 145.215 180.5 144.875 C180.17 142.895 179.84 140.915 179.5 138.875 C177.52 138.875 175.54 138.875 173.5 138.875 Z M53.5 140.875 C50.36472165 145.8133998 48.82951795 149.6579428 49.8203125 155.51171875 C51.75229685 162.22925054 55.47872947 168.21543407 59.5 173.875 C61.7180686 171.56451187 62.46924201 170.05954794 63 166.875 C62.81006273 162.20654175 60.68089557 158.17404172 58.8125 153.96484375 C57.00135601 149.70110893 55.7148588 145.33935917 54.5 140.875 C54.17 140.875 53.84 140.875 53.5 140.875 Z M280.5 152.875 C280.5 153.865 280.5 154.855 280.5 155.875 C284.38134031 157.68859313 287.40693517 158.1123701 291.67578125 158.0703125 C292.83271484 158.06386719 293.98964844 158.05742187 295.18164062 158.05078125 C296.97891602 158.02564453 296.97891602 158.02564453 298.8125 158 C300.03001953 157.99097656 301.24753906 157.98195312 302.50195312 157.97265625 C305.50150274 157.94913037 308.50065044 157.91625653 311.5 157.875 C309.57342613 153.31206189 308.10973302 150.8689461 303.5 148.875 C295.19620352 147.55448222 288.06063732 149.54117567 280.5 152.875 Z M183.5 156.4375 C180.46065885 160.14169703 180.32963502 163.7824911 180.70654297 168.41186523 C181.06752683 171.22188175 181.48818652 174.0152846 181.9375 176.8125 C182.08509766 177.78251953 182.23269531 178.75253906 182.38476562 179.75195312 C182.74758466 182.12783263 183.11952507 184.50189523 183.5 186.875 C184.46164062 186.10800781 185.42328125 185.34101563 186.4140625 184.55078125 C186.95498535 184.11934814 187.4959082 183.68791504 188.05322266 183.2434082 C191.24876145 180.22096559 191.42502765 176.48548912 191.9375 172.3125 C191.82951325 166.15725536 188.87796007 160.44622073 186.5 154.875 C185.20833864 154.77239266 185.20833864 154.77239266 183.5 156.4375 Z M243.5625 157.3125 C239.98315163 159.00512027 236.80866974 159.07193456 232.875 159.1875 C228.53292734 159.28901334 228.53292734 159.28901334 224.796875 161.16015625 C223.65902168 162.70384392 222.57835784 164.28917965 221.5 165.875 C217.98091587 167.69971029 214.70865578 168.8210373 210.875 169.8125 C207.00625912 171.03043694 205.18647175 171.81540717 202.5 174.875 C201.95642514 176.60607685 201.48473519 178.36039859 201.0625 180.125 C199.6976925 185.74920673 197.86050083 189.9577866 193.5 193.875 C191.7997176 194.74632852 190.06763819 195.55773941 188.3125 196.3125 C184.6395558 197.89319766 184.6395558 197.89319766 182.33203125 201.00390625 C181.86501736 202.5700799 181.43440257 204.14762315 181.04296875 205.734375 C180.21684371 208.99132841 178.96646617 210.59826199 176.5 212.875 C172.25366992 215.38186957 168.06706577 217.51336944 163.25 218.625 C160.02352695 220.09157866 159.53732902 221.1461183 157.75 224.125 C153.91766193 230.38784721 148.24183404 233.88659101 141.1875 235.75 C137.52648791 237.28251669 136.6235269 239.54564167 134.70703125 242.91015625 C131.6576068 247.87410608 126.83325835 250.00835958 121.5 251.875 C120.00110912 251.96004345 118.50074602 252.02166337 117 252.0625 C114.05890944 252.29103069 112.86703124 252.53169923 110.6875 254.5703125 C109.55331874 255.99328991 108.43103831 257.42582703 107.3203125 258.8671875 C103.21458831 263.3958189 97.33749218 264.82015492 91.5 265.875 C91.76380294 269.70014256 92.21113035 273.25137468 93.5 276.875 C95.39731752 278.32844966 97.17077717 278.9703813 99.40234375 279.8046875 C103.45997683 281.87506267 105.48273139 285.9247859 107.5 289.875 C107.93997243 291.30553893 108.35848559 292.74294684 108.75 294.1875 C109.6472329 296.91680726 110.10013487 297.66687055 112.69140625 299.015625 C114.45534724 299.63602749 116.22374008 300.2438995 117.99609375 300.83984375 C122.05142648 302.51638536 124.30374171 305.1342762 126.5 308.875 C127.11051011 310.57381075 127.69296803 312.28291062 128.25 314 C129.38128059 317.16854436 130.01324045 318.54586561 132.828125 320.44921875 C134.58853512 321.26508134 136.36491331 322.04745657 138.15625 322.79296875 C141.22534621 324.20986817 142.71261427 326.04497259 144.5 328.875 C145.16 329.865 145.82 330.855 146.5 331.875 C148.83139212 331.97015886 151.16784156 331.94903678 153.5 331.875 C154.95972506 332.13822911 156.41803948 332.40937619 157.875 332.6875 C162.7014679 333.30733749 165.55157008 331.66987081 169.5546875 329.1015625 C174.32137058 326.09606353 178.96470691 327.00829324 184.37109375 327.328125 C187.67570744 327.18506621 187.67570744 327.18506621 189.69140625 324.5 C190.28824219 323.63375 190.88507813 322.7675 191.5 321.875 C196.798926 317.78037536 202.34135081 317.43305551 208.86328125 317.44140625 C211.71929513 317.14067496 211.71929513 317.14067496 213.1796875 314.4765625 C213.83324219 313.18878906 213.83324219 313.18878906 214.5 311.875 C219.56916541 307.93231579 224.25528989 305.99066854 230.625 305.625 C234.70482826 305.25379249 234.70482826 305.25379249 237 301.9375 C238.64662248 299.1439988 238.64662248 299.1439988 238.5 296.875 C241.58849696 295.25062542 244.71917274 293.99774391 248 292.8125 C248.9384375 292.47089844 249.876875 292.12929688 250.84375 291.77734375 C253.5 290.875 253.5 290.875 255.6953125 290.51953125 C257.67935722 290.01212239 257.67935722 290.01212239 258.7734375 287.984375 C259.13695312 287.20578125 259.50046875 286.4271875 259.875 285.625 C262.15591918 281.27051793 264.30874859 278.61543361 268.5 275.875 C270.03527864 275.45507187 271.5776243 275.06039218 273.125 274.6875 C276.12076201 273.81872902 277.18290393 273.44617946 278.71875 270.6796875 C279.32705303 268.92295031 279.91277756 267.15824483 280.4765625 265.38671875 C282.10213039 261.39725253 284.95029464 259.17919471 288.5 256.875 C289.21285156 256.60945313 289.92570313 256.34390625 290.66015625 256.0703125 C292.77539221 254.99113559 292.77539221 254.99113559 293.15234375 252.3359375 C293.24644531 251.31757813 293.34054687 250.29921875 293.4375 249.25 C294.12063194 244.0768281 295.33018638 240.70278438 298.37890625 236.49609375 C299.69590248 234.75315697 299.69590248 234.75315697 300.5 231.875 C300.18179959 230.53797443 299.84548541 229.20523634 299.5 227.875 C299.38207524 225.75235425 299.32488859 223.62588282 299.3125 221.5 C299.29832031 220.39914063 299.28414062 219.29828125 299.26953125 218.1640625 C299.5 214.875 299.5 214.875 300.62890625 211.71484375 C301.76037589 208.99462011 301.76037589 208.99462011 300.8203125 206.77734375 C300.42585937 206.12894531 300.03140625 205.48054688 299.625 204.8125 C297.49835775 200.69213064 297.37484505 197.73723195 297.625 193.125 C297.80596755 189.83550944 297.80596755 189.83550944 297.5 186.875 C294.85763197 183.89519158 294.85763197 183.89519158 291.5 181.875 C288.45320616 177.91701548 286.98454381 173.84157408 286.5 168.875 C285.8709375 168.73964844 285.241875 168.60429687 284.59375 168.46484375 C279.5336188 167.19219027 276.23887823 165.96323981 272.5625 162.1875 C270.20640411 159.90294548 269.09338693 158.95153831 265.8046875 158.52734375 C263.90730514 158.59196849 262.01076528 158.69174544 260.1171875 158.828125 C256.27650963 158.89691326 253.91444392 157.54738069 250.5 155.875 C246.55374967 155.58196476 246.55374967 155.58196476 243.5625 157.3125 Z M-69.5 160.875 C-69.24364791 164.54937993 -68.78440077 166.51413557 -66.48046875 169.4375 C-62.75385525 172.48521537 -59.64099717 173.26170523 -55 174.1875 C-53.88044922 174.43983398 -53.88044922 174.43983398 -52.73828125 174.69726562 C-48.93703993 175.52142857 -45.4115794 176.0845489 -41.5 175.875 C-41.850625 174.781875 -42.20125 173.68875 -42.5625 172.5625 C-42.85833984 171.64017578 -42.85833984 171.64017578 -43.16015625 170.69921875 C-46.52405923 166.1192109 -54.5406514 164.8047214 -59.8125 163.1875 C-60.52728516 162.96255859 -61.24207031 162.73761719 -61.97851562 162.50585938 C-65.66956035 161.29761247 -65.66956035 161.29761247 -69.5 160.875 Z M42.5 168.875 C39.67516711 172.13442257 39.2636795 174.7082964 39.5 178.875 C40.19649095 183.80122246 41.57779482 185.68820829 45.5 188.875 C47.07121181 190.47063479 48.63307689 192.07550566 50.1875 193.6875 C51.58305337 195.12527179 53.01198102 196.53315185 54.5 197.875 C55.16 197.875 55.82 197.875 56.5 197.875 C57.57241792 190.45136916 53.87736106 185.57722926 50.0625 179.4375 C49.45083984 178.41978516 48.83917969 177.40207031 48.20898438 176.35351562 C45.92262622 172.57038127 45.92262622 172.57038127 43.5 168.875 C43.17 168.875 42.84 168.875 42.5 168.875 Z M297.5 168.875 C298.855108 173.61787801 301.44685498 176.25339131 305.5 178.875 C307.71969249 179.97273883 309.96210902 180.94768448 312.25 181.89453125 C314.42042514 182.84032415 316.40348828 183.91730554 318.4375 185.125 C321.20154142 187.04037965 321.20154142 187.04037965 323.5 186.875 C323.68114501 182.88980976 323.65662255 180.26302741 321.5 176.875 C316.1936399 172.55169068 304.30017383 165.47491309 297.5 168.875 Z M168.5 176.875 C164.56746828 181.15451981 163.36921209 184.24869213 163.40234375 189.98046875 C163.40556641 190.96337891 163.40878906 191.94628906 163.41210938 192.95898438 C163.42048828 193.98314453 163.42886719 195.00730469 163.4375 196.0625 C163.44201172 197.09826172 163.44652344 198.13402344 163.45117188 199.20117188 C163.4629599 201.75917266 163.47941485 204.31705733 163.5 206.875 C167.87571842 205.27393945 170.02105262 203.9366163 172.5 199.875 C173.01980599 196.60282933 173.01980599 196.60282933 172.8125 193.125 C172.77769531 191.90039062 172.74289062 190.67578125 172.70703125 189.4140625 C172.46040124 185.19808539 172.07701122 181.05833135 171.5 176.875 C170.51 176.875 169.52 176.875 168.5 176.875 Z M-53.5 186.875 C-52.38364857 190.78223001 -50.64259372 193.25277322 -47.47021484 195.80737305 C-43.49431939 197.96184527 -39.04970399 197.6605201 -34.625 197.6875 C-33.65046875 197.71263672 -32.6759375 197.73777344 -31.671875 197.76367188 C-29.28084372 197.82227558 -26.89163153 197.85874991 -24.5 197.875 C-25.78637409 193.90867988 -26.97356228 192.09200701 -30.5 189.875 C-32.75071516 189.20421403 -32.75071516 189.20421403 -35.16015625 188.92578125 C-36.4740332 188.73725586 -36.4740332 188.73725586 -37.81445312 188.54492188 C-38.72130859 188.42697266 -39.62816406 188.30902344 -40.5625 188.1875 C-41.92858398 187.99317383 -41.92858398 187.99317383 -43.32226562 187.79492188 C-46.75019726 187.31748703 -50.03500695 186.875 -53.5 186.875 Z M307.5 191.875 C307.74523862 198.86430073 309.47923398 202.0928017 314.5 206.875 C317.10643585 209.28452817 319.77603889 211.59962773 322.5 213.875 C323.1084375 214.38675781 323.716875 214.89851563 324.34375 215.42578125 C325.72414924 216.58154005 327.11125376 217.72928435 328.5 218.875 C329.70663908 214.48722151 329.54768936 211.18355898 327.76171875 206.95703125 C323.20518206 199.43804037 315.32527671 195.27303247 307.5 191.875 Z M145.5 197.875 C142.41130402 203.48284518 141.98085014 208.48734467 141.8125 214.8125 C141.77833984 215.68712891 141.74417969 216.56175781 141.70898438 217.46289062 C141.62724343 219.59983254 141.5619287 221.73739218 141.5 223.875 C145.48947472 221.7694439 148.02607801 219.66798216 150.5 215.875 C151.40413951 212.81772457 151.40413951 212.81772457 151.75 209.5625 C151.89695313 208.428125 152.04390625 207.29375 152.1953125 206.125 C152.55110749 202.32985347 152.64928254 198.68170465 152.5 194.875 C149.79415486 194.875 147.70301033 196.5091336 145.5 197.875 Z M38.5 198.875 C36.95923813 200.41576187 37.25643301 201.8594485 37.1875 204 C37.30844695 208.78496379 38.08179116 212.39534022 41.5 215.875 C49.39547022 221.67670898 49.39547022 221.67670898 58.5 224.875 C58.35345475 217.84082812 55.32438574 214.73288842 50.5 209.875 C49.54143264 208.89085289 48.58311414 207.90646335 47.625 206.921875 C44.95209526 204.19939148 42.27857721 201.49013149 39.5 198.875 C39.17 198.875 38.84 198.875 38.5 198.875 Z M-37.5 208.875 C-34.78715625 213.64036755 -34.78715625 213.64036755 -30.5 216.875 C-23.03651433 218.56484581 -15.03913474 217.90347034 -7.5 216.875 C-6.51 216.215 -5.52 215.555 -4.5 214.875 C-11.48536432 208.5246688 -18.4548827 208.5903636 -27.4375 208.75 C-28.8925293 208.76353516 -28.8925293 208.76353516 -30.37695312 208.77734375 C-32.75156407 208.80073893 -35.12564776 208.83351824 -37.5 208.875 Z M122.92578125 215.8671875 C118.23739122 222.46946826 118.18088266 232.97676111 117.5 240.875 C120.82564203 240.58994497 122.41219949 239.94419644 125.0625 237.85546875 C128.15547139 234.07351815 128.66985848 231.11499287 129.3125 226.375 C129.43302734 225.62863281 129.55355469 224.88226563 129.67773438 224.11328125 C130.2622753 220.33881702 130.64437528 216.70474426 130.5 212.875 C127.10010779 212.875 125.48131657 213.64773995 122.92578125 215.8671875 Z M309.5 218.875 C309.76341799 226.90924881 312.42017063 232.05251022 316.5 238.875 C317.46412948 240.60094163 318.42299089 242.32984343 319.375 244.0625 C320.0828878 245.33358156 320.79103897 246.60451673 321.5 247.875 C322.16 247.875 322.82 247.875 323.5 247.875 C325.5088583 243.73172976 325.90215934 240.45961644 325.5 235.875 C323.50635211 231.01714463 320.66721648 227.60718966 316.9375 224 C316.1959668 223.25363281 316.1959668 223.25363281 315.43945312 222.4921875 C312.93298494 219.71209027 312.93298494 219.71209027 309.5 218.875 Z M98.5 231.875 C95.66412974 236.61811802 94.47414772 241.41636454 93.3125 246.75 C93.13525391 247.53375 92.95800781 248.3175 92.77539062 249.125 C92.34332211 251.04011451 91.92068646 252.95735308 91.5 254.875 C96.49039679 253.34690609 99.17487979 252.00893324 102.5 247.875 C105.5392941 241.45871245 106.50912571 234.86940678 107.5 227.875 C103.37152383 227.875 101.70852124 229.33492069 98.5 231.875 Z M-15.5 228.875 C-13.79410439 232.62482583 -11.88633833 234.47978508 -8.5 236.875 C-0.72611604 239.46629465 7.69037949 237.53788498 15.5 235.875 C15.5 235.215 15.5 234.555 15.5 233.875 C10.49546648 229.05905643 5.33241126 228.32867876 -1.37890625 228.43554688 C-2.92384766 228.49838867 -2.92384766 228.49838867 -4.5 228.5625 C-5.56089844 228.58505859 -6.62179688 228.60761719 -7.71484375 228.63085938 C-10.31139699 228.6893403 -12.90492866 228.77123546 -15.5 228.875 Z M40.5 229.875 C39.99367829 235.19137797 41.25291624 237.70017803 44.5 241.875 C46.76278998 244.54035002 48.28160478 245.31055816 51.73046875 245.82421875 C52.93413086 246.01274414 52.93413086 246.01274414 54.16210938 246.20507812 C54.99548828 246.32302734 55.82886719 246.44097656 56.6875 246.5625 C57.9549707 246.75682617 57.9549707 246.75682617 59.24804688 246.95507812 C61.33038243 247.27272253 63.41500308 247.57532154 65.5 247.875 C64.1689307 243.64306772 62.6834081 241.86784997 59 239.4375 C58.11183594 238.8496875 57.22367188 238.261875 56.30859375 237.65625 C55.38175781 237.0684375 54.45492187 236.480625 53.5 235.875 C52.58347656 235.2871875 51.66695312 234.699375 50.72265625 234.09375 C45.96229951 230.87665326 45.96229951 230.87665326 40.5 229.875 Z M77.5 240.875 C77.83 244.835 78.16 248.795 78.5 252.875 C80.96301423 250.41198577 81.26766521 248.60139964 82.125 245.25 C82.51558594 243.74566406 82.51558594 243.74566406 82.9140625 242.2109375 C83.10742188 241.44007813 83.30078125 240.66921875 83.5 239.875 C79.7236068 239.5768576 79.7236068 239.5768576 77.5 240.875 Z M305.5 244.875 C303.12677523 248.5831637 303.15571215 251.53697314 303.5 255.875 C304.18059661 258.65548617 304.96122953 261.39353857 305.765625 264.140625 C306.72703551 267.72034497 307.15230606 271.18944425 307.5 274.875 C311.43631364 274.875 312.62605026 273.44642871 315.5 270.875 C317.08937905 267.6962419 316.83371388 265.41236712 316.5 261.875 C315.14559201 258.70804391 313.39197418 255.85018263 311.5625 252.9375 C310.85963867 251.76864258 310.85963867 251.76864258 310.14257812 250.57617188 C308.38877875 247.68119657 308.38877875 247.68119657 306.5 244.875 C306.17 244.875 305.84 244.875 305.5 244.875 Z M13.5625 247.875 C12.39364258 248.01808594 12.39364258 248.01808594 11.20117188 248.1640625 C9.30031793 248.39729611 7.40008953 248.63561864 5.5 248.875 C6.675625 250.3290625 6.675625 250.3290625 7.875 251.8125 C8.31585938 252.35777344 8.75671875 252.90304688 9.2109375 253.46484375 C11.17348721 255.61175419 12.34138685 255.86331744 15.2578125 256.078125 C22.04892069 256.17266479 27.415462 256.03427935 33.5 252.875 C33.83 251.885 34.16 250.895 34.5 249.875 C33.71806727 247.74924341 33.71806727 247.74924341 31.875 247.25 C25.74936335 246.28279421 19.66053358 247.10164184 13.5625 247.875 Z M52.5 256.875 C52.93347548 262.2934435 53.80257972 265.8078377 57.5 269.875 C64.57513415 273.81799611 73.57963628 273.98800275 81.5 274.875 C81.45252336 272.01413312 81.45252336 272.01413312 80.5 268.875 C77.98139851 266.5433942 77.98139851 266.5433942 74.6875 264.75 C74.11016113 264.41162109 73.53282227 264.07324219 72.93798828 263.72460938 C66.74926545 260.22670886 59.70297532 256.875 52.5 256.875 Z M37.6875 263.3125 C35.1919819 264.53579319 33.19369029 265.35698264 30.5 265.875 C31.43211237 268.20528092 32.19003398 269.63391532 34.1875 271.1875 C37.4760002 272.16516222 40.17519127 271.51438629 43.5 270.875 C42.84 267.905 42.18 264.935 41.5 261.875 C40.1219775 261.79914816 40.1219775 261.79914816 37.6875 263.3125 Z M293.5 266.875 C289.93440503 269.96518231 288.63231835 272.30528668 287.5 276.875 C287.26822702 280.50466596 287.31096727 284.11491136 287.375 287.75 C287.38402344 288.72453125 287.39304687 289.6990625 287.40234375 290.703125 C287.42578377 293.09400728 287.45859558 295.48437261 287.5 297.875 C292.54009069 295.58436333 292.54009069 295.58436333 296.5 291.875 C298.82710645 284.24726219 297.68186412 275.41724635 295.5 267.875 C294.84 267.545 294.18 267.215 293.5 266.875 Z M68.5 284.875 C70.15496025 289.48414164 72.2094918 292.40819775 76.5 294.875 C83.3615608 296.43991738 90.49134774 295.97115529 97.5 295.875 C95.84658073 291.25443197 95.84658073 291.25443197 92.5 287.875 C84.81558214 285.16285252 76.57018926 285.24716892 68.5 284.875 Z M272.0625 286.875 C266.92026626 292.89517608 265.99002692 299.74194444 265.3125 307.375 C265.23064453 308.19742187 265.14878906 309.01984375 265.06445312 309.8671875 C264.86661362 311.86885775 264.68191276 313.87181953 264.5 315.875 C268.89069434 314.52355509 271.54725992 313.48390455 274.5 309.875 C275.4731681 306.9554957 275.6929546 304.82055049 275.81640625 301.76953125 C275.85830078 300.78662109 275.90019531 299.80371094 275.94335938 298.79101562 C275.98267578 297.76685547 276.02199219 296.74269531 276.0625 295.6875 C276.10568359 294.65173828 276.14886719 293.61597656 276.19335938 292.54882812 C276.29944366 289.9910181 276.40150146 287.43311155 276.5 284.875 C274.2321912 284.66356113 274.2321912 284.66356113 272.0625 286.875 Z M246.5 305.875 C243.08307223 310.33932774 242.34642711 315.29257296 241.3125 320.6875 C241.13525391 321.57115234 240.95800781 322.45480469 240.77539062 323.36523438 C240.34171449 325.53361506 239.91687996 327.70333887 239.5 329.875 C246.69370105 327.66407253 246.69370105 327.66407253 251.44140625 322.0703125 C253.91375023 315.54905735 254.19030117 308.78448774 254.5 301.875 C251.11553575 301.875 249.13087893 303.88841795 246.5 305.875 Z M84.5 307.875 C87.2117487 312.5897449 89.25271722 315.12590574 94.5 316.875 C96.27313851 316.95709792 98.04920775 316.98246294 99.82421875 316.97265625 C101.36625977 316.96782227 101.36625977 316.96782227 102.93945312 316.96289062 C104.01130859 316.95451172 105.08316406 316.94613281 106.1875 316.9375 C107.27095703 316.93298828 108.35441406 316.92847656 109.47070312 316.92382812 C112.14719085 316.91203743 114.82356777 316.89558063 117.5 316.875 C116.13638132 312.9565692 116.13638132 312.9565692 113.1875 310.125 C108.96421499 308.16068139 105.04070006 307.74898344 100.41796875 307.77734375 C99.48662109 307.78056641 98.55527344 307.78378906 97.59570312 307.78710938 C96.63599609 307.79548828 95.67628906 307.80386719 94.6875 307.8125 C93.70845703 307.81701172 92.72941406 307.82152344 91.72070312 307.82617188 C89.31373889 307.83791316 86.90690143 307.85433581 84.5 307.875 Z M229.5 315.875 C224.47260482 318.10939786 221.63408898 319.96134493 219.60864258 325.16503906 C219.25515747 326.3904541 219.25515747 326.3904541 218.89453125 327.640625 C218.63349609 328.53007812 218.37246094 329.41953125 218.10351562 330.3359375 C217.84248047 331.25632812 217.58144531 332.17671875 217.3125 333.125 C217.03986328 334.06085938 216.76722656 334.99671875 216.48632812 335.9609375 C215.81668739 338.2635618 215.15488053 340.56814283 214.5 342.875 C218.18487923 342.6179154 220.19711413 342.09887217 223.1953125 339.8828125 C226.15499096 336.02018129 227.20576523 332.419444 228.375 327.75 C228.59929687 326.93917969 228.82359375 326.12835938 229.0546875 325.29296875 C230.40006372 320.59417564 230.40006372 320.59417564 229.5 315.875 Z M201 329 C195.32625803 333.25530648 192.95317937 338.84504026 190.25 345.1875 C189.88648438 346.02345703 189.52296875 346.85941406 189.1484375 347.72070312 C188.25876659 349.76928746 187.37620804 351.82063013 186.5 353.875 C191.40315809 353.85363548 194.54167403 353.71535777 198.32421875 350.3984375 C201.07487967 346.45004134 202.68724358 341.9990542 204.3125 337.5 C204.62380859 336.66855469 204.93511719 335.83710938 205.25585938 334.98046875 C206.01463389 332.94928773 206.7588341 330.91267225 207.5 328.875 C204.2393343 327.84939544 204.2393343 327.84939544 201 329 Z M105.5 328.875 C106.31807965 332.70874583 107.36262465 334.39812472 110.5 336.875 C115.50245499 338.61444797 119.90534116 339.14636364 125.1875 339.125 C126.47011719 339.13015625 127.75273437 339.1353125 129.07421875 339.140625 C132.19984783 338.89827292 133.89899683 338.53437418 136.5 336.875 C134.69587357 333.61039027 133.66605307 331.98570205 130.5 329.875 C127.16921481 329.01014899 124.06868921 328.75520201 120.63671875 328.77734375 C119.75048828 328.78056641 118.86425781 328.78378906 117.95117188 328.78710938 C116.5831543 328.79967773 116.5831543 328.79967773 115.1875 328.8125 C114.25615234 328.81701172 113.32480469 328.82152344 112.36523438 328.82617188 C110.07675627 328.83790766 107.78841192 328.85432637 105.5 328.875 Z M170.5 340.875 C167.44993159 344.40087908 164.84517858 348.19376156 162.25 352.0625 C161.54359375 353.10792969 160.8371875 354.15335937 160.109375 355.23046875 C158.32671104 357.64379169 158.32671104 357.64379169 158.5 359.875 C161.6409268 360.43875609 163.82159522 360.2326373 166.65625 358.73828125 C173.88650621 353.62510348 179.80989019 345.72695014 181.5 336.875 C176.93891126 336.875 174.05305093 338.15566935 170.5 340.875 Z M147.875 345.25 C141.07700348 349.24283323 133.19478621 349.28309337 125.5 349.875 C127.96502865 354.30480148 129.64642926 356.10157992 134.5 357.875 C139.65772117 358.41791802 142.29867882 357.82363367 146.5 354.875 C148.78245918 352.48546632 148.78245918 352.48546632 150.8125 349.8125 C151.50988281 348.93464844 152.20726562 348.05679687 152.92578125 347.15234375 C154.68954096 345.06221322 154.68954096 345.06221322 154.5 342.875 C151.09795821 342.875 150.57268803 343.39063733 147.875 345.25 Z " fill="#9E182B" transform="translate(92.5,1.125)"/>
</svg>
